<?xml version="1.0" encoding="UTF-8"?>
<svg width="144.76mm" height="80.645mm" version="1.1" viewBox="0 0 144.76 80.645" xmlns="http://www.w3.org/2000/svg"><g transform="translate(88.084 -81.175)"><g fill="none" stroke-width=".84756"><path d="m-32.37 98.3-30.209 16.649" stroke="#00f"/><path d="m25.21 126.25-33.991 18.428" stroke="#00f"/><path d="m-5.5853 98.131 29.258 16.262" stroke="#008000"/><path d="m-63.291 126.17 34.358 18.583" stroke="#008000"/></g><g transform="matrix(.42378 0 0 .42378 -32.677 151.99)"><rect x="-42.33" y="-16.832" width="146.93" height="27.734" rx="4.7336" ry="4.7336" fill="#fcf2d3" stroke="#999"/><text x="10.105684" y="-5.4766574" font-family="monospace" font-size="7.0556px" stroke-width=".26458" style="line-height:1.25" xml:space="preserve"><tspan x="10.105684" y="-5.4766574" font-family="monospace" font-size="7.0556px" stroke-width=".26458">Witherable</tspan></text><text x="-31.846994" y="2.8982816" font-family="monospace" font-size="7.0556px" stroke-width=".26458" style="line-height:1.25" xml:space="preserve"><tspan x="-31.846994" y="2.8982816" font-family="monospace" font-size="7.0556px" stroke-width=".26458">wither (g :: a -&gt; <tspan fill="#0000ff">f</tspan> (<tspan fill="#008000">Maybe</tspan> b))</tspan></text></g><g transform="matrix(.42378 0 0 .42378 -42.717 49.655)"><rect x="8.2536" y="86.675" width="93.145" height="27.734" rx="4.7336" ry="4.7336" fill="#fcf2d3" stroke="#999"/><text x="39.691921" y="98.029861" font-family="monospace" font-size="7.0556px" stroke-width=".26458" style="line-height:1.25" xml:space="preserve"><tspan x="39.691921" y="98.029861" font-family="monospace" font-size="7.0556px" stroke-width=".26458">Functor</tspan></text><text x="16.993896" y="106.4048" font-family="monospace" font-size="7.0556px" stroke-width=".26458" style="line-height:1.25" xml:space="preserve"><tspan x="16.993896" y="106.4048" font-family="monospace" font-size="7.0556px" stroke-width=".26458">fmap (g :: a -&gt; b)</tspan></text></g><g transform="matrix(.42378 0 0 .42378 -64.933 122.04)"><rect x="-42.33" y="-16.832" width="120.54" height="25.731" rx="4.7336" ry="4.7336" fill="#fcf2d3" stroke="#999"/><text x="-5.2936487" y="-5.4766574" font-family="monospace" font-size="7.0556px" stroke-width=".26458" style="line-height:1.25" xml:space="preserve"><tspan x="-5.2936487" y="-5.4766574" font-family="monospace" font-size="7.0556px" stroke-width=".26458">Traversable</tspan></text><text x="-32.523701" y="2.8982816" font-family="monospace" font-size="7.0556px" stroke-width=".26458" style="line-height:1.25" xml:space="preserve"><tspan x="-32.523701" y="2.8982816" font-family="monospace" font-size="7.0556px" stroke-width=".26458">traverse (g :: a -&gt; <tspan fill="#0000ff">f</tspan> b)</tspan></text></g><g transform="matrix(.42378 0 0 .42378 11.126 121.61)"><rect x="-42.33" y="-16.832" width="137.51" height="27.734" rx="4.7336" ry="4.7336" fill="#fcf2d3" stroke="#999"/><text x="4.9929194" y="-5.4766574" font-family="monospace" font-size="7.0556px" stroke-width=".26458" style="line-height:1.25" xml:space="preserve"><tspan x="4.9929194" y="-5.4766574" font-family="monospace" font-size="7.0556px" stroke-width=".26458">Filterable</tspan></text><text x="-32.498356" y="2.8982816" font-family="monospace" font-size="7.0556px" stroke-width=".26458" style="line-height:1.25" xml:space="preserve"><tspan x="-32.498356" y="2.8982816" font-family="monospace" font-size="7.0556px" stroke-width=".26458">mapMaybe (g :: a -&gt; <tspan fill="#008000">Maybe</tspan> b)</tspan></text></g><g stroke-width=".11212"><text x="-75.876968" y="102.2774" font-family="sans-serif" font-size="3.289px" letter-spacing="0px" style="line-height:1.25" xml:space="preserve"><tspan x="-75.876968" y="102.2774"/><tspan x="-75.876968" y="106.38866">での副作用がある</tspan></text><text x="-74.998405" y="101.90911" font-family="monospace" font-size="2.99px" style="line-height:1.25" xml:space="preserve"><tspan x="-74.998405" y="101.90911" font-family="monospace" font-size="2.99px" stroke-width=".11212">Applicative <tspan fill="#0000ff" stroke-width=".11212">f</tspan></tspan></text><text x="11.723914" y="138.83691" font-family="sans-serif" font-size="3.289px" letter-spacing="0px" style="line-height:1.25" xml:space="preserve"><tspan x="11.723914" y="138.83691"/><tspan x="11.723914" y="142.94818">での副作用がある</tspan></text><text x="12.602482" y="138.24437" font-family="monospace" font-size="2.99px" style="line-height:1.25" xml:space="preserve"><tspan x="12.602482" y="138.24437" font-family="monospace" font-size="2.99px" stroke-width=".11212">Applicative <tspan fill="#0000ff" stroke-width=".11212">f</tspan></tspan></text><text x="9.1479158" y="100.82316" font-family="sans-serif" font-size="3.289px" letter-spacing="0px" style="line-height:1.25" xml:space="preserve"><tspan x="9.1479158" y="100.82316"/><tspan x="9.1479158" y="104.93442">要素を取り除く</tspan></text><text x="-69.523918" y="134.55777" font-family="sans-serif" font-size="3.289px" letter-spacing="0px" style="line-height:1.25" xml:space="preserve"><tspan x="-69.523918" y="134.55777"/><tspan x="-69.523918" y="138.66904">要素を取り除く</tspan></text></g></g></svg>
